<?xml version="1.0" encoding="UTF-8"?><!DOCTYPE svg PUBLIC "-//W3C//DTD SVG 1.1//EN" "http://www.w3.org/Graphics/SVG/1.1/DTD/svg11.dtd"><svg xmlns="http://www.w3.org/2000/svg" xmlns:xlink="http://www.w3.org/1999/xlink"><symbol id="icon-arrow-left" viewBox="0 0 20 19">
    <path d="M18.75 8.003H3.925l4.538-5.45a1.252 1.252 0 0 0-1.925-1.6l-6.25 7.5c-.043.06-.08.122-.113.187 0 .063 0 .1-.087.163a1.25 1.25 0 0 0-.088.45c.001.154.03.307.088.45 0 .062 0 .1.087.162.033.066.07.128.112.188l6.25 7.5a1.25 1.25 0 0 0 1.763.162 1.25 1.25 0 0 0 .162-1.762l-4.537-5.45H18.75a1.25 1.25 0 0 0 0-2.5z"/>
</symbol><symbol id="icon-arrow-right" viewBox="0 0 20 19">
    <path d="M1.25 8.003h14.825l-4.537-5.45a1.251 1.251 0 1 1 1.925-1.6l6.25 7.5c.041.06.08.122.112.187 0 .063 0 .1.088.163.056.143.086.296.087.45a1.25 1.25 0 0 1-.087.45c0 .062 0 .1-.088.162-.033.066-.07.128-.113.188l-6.25 7.5a1.25 1.25 0 0 1-.962.45 1.25 1.25 0 0 1-.963-2.05l4.538-5.45H1.25a1.25 1.25 0 0 1 0-2.5z"/>
</symbol><symbol id="icon-check" viewBox="0 0 14 10">
    <path d="M5.576 9.28a.997.997 0 0 1-.707-.292L.627 4.745A1 1 0 1 1 2.04 3.33l3.535 3.535L11.94.502a1 1 0 1 1 1.415 1.414L6.283 8.988a.997.997 0 0 1-.707.292z"/>
</symbol><symbol id="icon-facebook" viewBox="0 0 34 35">
    <path d="M16.8.58C7.521.58 0 8.103 0 17.38c0 9.28 7.521 16.8 16.8 16.8 9.278 0 16.8-7.52 16.8-16.8 0-9.278-7.522-16.8-16.8-16.8zm3.98 11.61h-2.526c-.299 0-.632.394-.632.917v1.824h3.16l-.479 2.6h-2.68v7.807h-2.98V17.53h-2.705v-2.6h2.704V13.4c0-2.194 1.523-3.978 3.612-3.978h2.525v2.767z"/>
</symbol><symbol id="icon-instagram" viewBox="0 0 34 35">
    <path d="M22.25 17.38a5.25 5.25 0 0 1-10.5 0c0-.299.031-.59.086-.874H10V23.5c0 .487.394.88.88.88h12.242A.88.88 0 0 0 24 23.5v-6.994h-1.836c.054.283.086.575.086.875zM17 20.88a3.5 3.5 0 0 0 2.474-5.976A3.5 3.5 0 1 0 17 20.88zm4.2-7.174h2.098a.527.527 0 0 0 .527-.525v-2.099a.527.527 0 0 0-.527-.526H21.2a.527.527 0 0 0-.527.526v2.099a.53.53 0 0 0 .527.525zM17 .58a16.8 16.8 0 1 0 0 33.6 16.8 16.8 0 0 0 0-33.6zm8.75 23.605a1.95 1.95 0 0 1-1.944 1.945H10.194a1.95 1.95 0 0 1-1.944-1.945V10.575a1.95 1.95 0 0 1 1.944-1.944h13.612a1.95 1.95 0 0 1 1.944 1.944v13.611z"/>
</symbol><symbol id="icon-location" viewBox="0 0 24 25">
    <path d="M19 9.55A7.002 7.002 0 0 0 7.05 4.6 7 7 0 0 0 5 9.55c0 1.386.41 2.676 1.105 3.764h-.008C8.457 17.01 12 22.55 12 22.55l5.903-9.235h-.007A6.98 6.98 0 0 0 19 9.55zm-7 3a3 3 0 1 1 0-6.001 3 3 0 0 1 0 6z"/>
</symbol><symbol id="icon-logo" viewBox="0 0 149 37">
    <path d="M31.147 13.648l-.021-.022a.013.013 0 0 1-.005-.005L17.502 0 3.88 13.62l-.004.006-.023.021a13.245 13.245 0 0 0 13.283 22c.238-.072.492-.072.73 0a13.243 13.243 0 0 0 17.04-14.242 13.246 13.246 0 0 0-3.759-7.757zM8.723 22.63a.714.714 0 0 0-.209.505 13.219 13.219 0 0 0 1.965 6.802.258.258 0 0 1-.317.375 7.947 7.947 0 0 1-2.543-12.938L17.5 7.493l9.882 9.881a7.945 7.945 0 0 1-.007 11.231 7.922 7.922 0 0 1-2.536 1.707.26.26 0 0 1-.318-.375 13.22 13.22 0 0 0 1.966-6.802.713.713 0 0 0-.21-.505l-4.674-4.958a.26.26 0 0 0-.391.326c1.815 3.285.254 8.004-2.35 10.607l-.013.014a1.918 1.918 0 0 1-2.7 0l-.012-.014c-2.604-2.603-4.164-7.322-2.349-10.607a.258.258 0 0 0-.39-.326L8.722 22.63z"/>
</symbol><symbol id="icon-server" viewBox="0 0 25 25">
    <path d="M20.5 3.55h-16a2 2 0 0 0-2 2v4a2 2 0 0 0 2 2h16a2 2 0 0 0 2-2v-4a2 2 0 0 0-2-2zm-5 4a1 1 0 1 1-2 0 1 1 0 0 1 2 0zm4 0a1 1 0 1 1-2 0 1 1 0 0 1 2 0zm1 6h-16a2 2 0 0 0-2 2v4a2 2 0 0 0 2 2h16a2 2 0 0 0 2-2v-4a2 2 0 0 0-2-2zm-5 4a1 1 0 1 1-2 0 1 1 0 0 1 2 0zm4 0a1 1 0 1 1-2 0 1 1 0 0 1 2 0z"/>
</symbol><symbol id="icon-star" viewBox="0 0 16 17">
    <path d="M14.19 6.418l-3.968-.577-1.774-3.595a.502.502 0 0 0-.897 0L5.779 5.841l-3.967.577a.5.5 0 0 0-.277.853l2.87 2.799-.677 3.951a.5.5 0 0 0 .725.527L8 12.682l3.548 1.866a.5.5 0 0 0 .725-.527l-.678-3.951 2.87-2.799a.499.499 0 0 0-.276-.853z"/>
</symbol><symbol id="icon-twitter" viewBox="0 0 35 35">
    <path d="M17.4.58C8.121.58.6 8.103.6 17.38c0 9.28 7.521 16.8 16.8 16.8s16.8-7.52 16.8-16.8c0-9.278-7.522-16.8-16.8-16.8zm6.834 13.763c.007.143.008.287.008.427 0 4.375-3.326 9.416-9.413 9.416A9.336 9.336 0 0 1 9.758 22.7c.257.031.521.044.789.044 1.55 0 2.977-.527 4.109-1.416a3.316 3.316 0 0 1-3.09-2.296 3.325 3.325 0 0 0 1.492-.058 3.311 3.311 0 0 1-2.655-3.244v-.04c.447.246.958.397 1.5.414a3.308 3.308 0 0 1-1.024-4.42 9.407 9.407 0 0 0 6.82 3.46 3.31 3.31 0 0 1 5.639-3.02 6.644 6.644 0 0 0 2.1-.803 3.325 3.325 0 0 1-1.454 1.833 6.648 6.648 0 0 0 1.9-.524 6.711 6.711 0 0 1-1.65 1.714z"/>
</symbol><symbol id="icon-user" viewBox="0 0 25 25">
    <path fill-rule="evenodd" clip-rule="evenodd" d="M12.5 11.35a3.6 3.6 0 1 0 0-7.2 3.6 3.6 0 0 0 0 7.2zm-5.101 10.8c-1.822 0-3.357-1.532-2.66-3.215a8.4 8.4 0 0 1 15.522 0c.697 1.683-.838 3.214-2.66 3.214H7.4z"/>
</symbol></svg>